<svg width="1024" height="1024" viewBox="0 0 1024 1024" fill="none" xmlns="http://www.w3.org/2000/svg">
<path d="M267.3 400H214.8V137.5H372.3V190H267.3V242.5H372.3V295H267.3V400ZM372.3 242.5V190H424.8V242.5H372.3ZM534 190V137.5H586.5V190H534ZM481.5 242.5V190H534V242.5H481.5ZM586.5 242.5V190H639V242.5H586.5ZM534 242.5H586.5V295H534V242.5ZM481.5 347.5V295H534V347.5H481.5ZM586.5 347.5V295H639V347.5H586.5ZM534 347.5H586.5V400H534V347.5ZM639 347.5H691.5V400H639V347.5ZM800.7 400H748.2V137.5H800.7V400Z" fill="white" style="fill:white;fill-opacity:1;"/>
</svg>
